<mxfile host="app.diagrams.net" modified="2020-07-10T11:03:07.726Z" agent="5.0 (Windows NT 10.0; Win64; x64) AppleWebKit/537.36 (KHTML, like Gecko) Chrome/83.0.4103.116 Safari/537.36" etag="7QWtm13rW1S6Tsuf5qVX" version="13.4.1" type="github">
  <diagram id="KBWNeWzFb76yXDcvMDIo" name="Page-1">
    <mxGraphModel dx="1021" dy="410" grid="0" gridSize="10" guides="1" tooltips="1" connect="1" arrows="1" fold="1" page="1" pageScale="1" pageWidth="850" pageHeight="1100" background="#FFFFFF" math="0" shadow="0">
      <root>
        <mxCell id="0" />
        <mxCell id="1" parent="0" />
        <mxCell id="OlLMTqEd5MZmWg_V515S-2" value="&lt;div&gt;Kodiak Interface&lt;/div&gt;&lt;div&gt;&lt;br&gt;&lt;/div&gt;&lt;div&gt;&lt;br&gt;&lt;/div&gt;&lt;div&gt;&lt;br&gt;&lt;/div&gt;&lt;div&gt;&lt;br&gt;&lt;/div&gt;&lt;div&gt;&lt;br&gt;&lt;/div&gt;&lt;div&gt;&lt;br&gt;&lt;/div&gt;&lt;div&gt;&lt;br&gt;&lt;/div&gt;&lt;div&gt;&lt;br&gt;&lt;/div&gt;&lt;div&gt;&lt;br&gt;&lt;/div&gt;&lt;div&gt;&lt;br&gt;&lt;/div&gt;&lt;div&gt;&lt;br&gt;&lt;/div&gt;&lt;div&gt;&lt;br&gt;&lt;/div&gt;&lt;div&gt;&lt;br&gt;&lt;/div&gt;&lt;div&gt;&lt;br&gt;&lt;/div&gt;&lt;div&gt;&lt;br&gt;&lt;/div&gt;&lt;div&gt;&lt;br&gt;&lt;/div&gt;&lt;div&gt;&lt;br&gt;&lt;/div&gt;" style="rounded=0;whiteSpace=wrap;html=1;align=center;fillColor=#FFF2CC;" parent="1" vertex="1">
          <mxGeometry x="166" y="78" width="260" height="263" as="geometry" />
        </mxCell>
        <mxCell id="OlLMTqEd5MZmWg_V515S-6" value="&lt;font face=&quot;Verdana&quot;&gt;Kodiak Converter&lt;br&gt;&lt;br&gt;&lt;br&gt;&lt;br&gt;&lt;br&gt;&lt;br&gt;&lt;br&gt;&lt;br&gt;&lt;br&gt;&lt;br&gt;&lt;br&gt;&lt;br&gt;&lt;br&gt;&lt;/font&gt;" style="rounded=1;whiteSpace=wrap;html=1;fillColor=#FFE599;" parent="1" vertex="1">
          <mxGeometry x="197" y="125" width="199" height="193" as="geometry" />
        </mxCell>
        <mxCell id="OlLMTqEd5MZmWg_V515S-7" value="Logger" style="rounded=1;whiteSpace=wrap;html=1;fillColor=#F19C99;" parent="1" vertex="1">
          <mxGeometry x="219" y="159" width="71" height="25" as="geometry" />
        </mxCell>
        <mxCell id="OlLMTqEd5MZmWg_V515S-15" value="&lt;font&gt;&lt;b style=&quot;font-size: 10px&quot;&gt;Publish &lt;/b&gt;&lt;span style=&quot;font-size: 10px&quot;&gt;&lt;b&gt;Meaningful&lt;br&gt;&lt;/b&gt;&lt;/span&gt;&lt;b style=&quot;font-size: 10px&quot;&gt;&amp;nbsp;data using Keys&amp;nbsp;&lt;/b&gt;&lt;/font&gt;" style="rounded=1;whiteSpace=wrap;html=1;fillColor=#5DE8A3;strokeColor=#3399FF;" parent="1" vertex="1">
          <mxGeometry x="307" y="167" width="68" height="71" as="geometry" />
        </mxCell>
        <mxCell id="OlLMTqEd5MZmWg_V515S-32" value="&lt;font style=&quot;font-size: 9px&quot; face=&quot;Times New Roman&quot;&gt;Publish Topic : datapayload,&lt;br&gt;&amp;nbsp; cyclefile&lt;br&gt;&lt;br&gt;&lt;/font&gt;" style="text;html=1;align=center;verticalAlign=middle;resizable=0;points=[];autosize=1;" parent="1" vertex="1">
          <mxGeometry x="388" y="429" width="112" height="48" as="geometry" />
        </mxCell>
        <mxCell id="OlLMTqEd5MZmWg_V515S-5" value="Input Excel" style="rounded=0;whiteSpace=wrap;html=1;fillColor=#F5D062;" parent="1" vertex="1">
          <mxGeometry x="35" y="178" width="94" height="34" as="geometry" />
        </mxCell>
        <mxCell id="OlLMTqEd5MZmWg_V515S-14" value="&lt;b&gt;&lt;font style=&quot;font-size: 10px&quot;&gt;Raw Data&lt;br&gt;&amp;nbsp;C&lt;span style=&quot;color: rgba(0 , 0 , 0 , 0) ; white-space: nowrap ; font-size: 0px&quot;&gt;%3CmxGraphModel%3E%3Croot%3E%3CmxCell%20id%3D%220%22%2F%3E%3CmxCell%20id%3D%221%22%20parent%3D%220%22%2F%3E%3CmxCell%20id%3D%222%22%20value%3D%22%22%20style%3D%22shape%3DflexArrow%3BendArrow%3Dclassic%3BstartArrow%3Dclassic%3Bhtml%3D1%3B%22%20edge%3D%221%22%20parent%3D%221%22%3E%3CmxGeometry%20width%3D%2250%22%20height%3D%2250%22%20relative%3D%221%22%20as%3D%22geometry%22%3E%3CmxPoint%20x%3D%22581%22%20y%3D%22301%22%20as%3D%22sourcePoint%22%2F%3E%3CmxPoint%20x%3D%22670%22%20y%3D%22301%22%20as%3D%22targetPoint%22%2F%3E%3C%2FmxGeometry%3E%3C%2FmxCell%3E%3CmxCell%20id%3D%223%22%20value%3D%22Text%22%20style%3D%22text%3Bhtml%3D1%3Balign%3Dcenter%3BverticalAlign%3Dmiddle%3Bresizable%3D0%3Bpoints%3D%5B%5D%3BlabelBackgroundColor%3D%23ffffff%3B%22%20vertex%3D%221%22%20connectable%3D%220%22%20parent%3D%222%22%3E%3CmxGeometry%20x%3D%220.221%22%20y%3D%22-6%22%20relative%3D%221%22%20as%3D%22geometry%22%3E%3CmxPoint%20as%3D%22offset%22%2F%3E%3C%2FmxGeometry%3E%3C%2FmxCell%3E%3C%2Froot%3E%3C%2FmxGraphModel%&lt;/span&gt;onverter&lt;/font&gt;&lt;/b&gt;" style="rounded=1;whiteSpace=wrap;html=1;fillColor=#5DE8A3;strokeColor=#3399FF;" parent="1" vertex="1">
          <mxGeometry x="208" y="224" width="71" height="69.5" as="geometry" />
        </mxCell>
        <mxCell id="_SsLV91mDrDcCINA4WaN-4" value="&lt;b&gt;&lt;font face=&quot;Verdana&quot; style=&quot;font-size: 10px&quot;&gt;UCP&lt;/font&gt;&lt;/b&gt;" style="rounded=1;whiteSpace=wrap;html=1;fillColor=#5DE8A3;strokeColor=#3399FF;" parent="1" vertex="1">
          <mxGeometry x="208" y="372" width="68" height="65.5" as="geometry" />
        </mxCell>
        <mxCell id="_SsLV91mDrDcCINA4WaN-15" value="&lt;span style=&quot;font-size: 10px&quot;&gt;&lt;b&gt;Dictionary Object&lt;/b&gt;&lt;/span&gt;" style="rounded=1;whiteSpace=wrap;html=1;fillColor=#5DE8A3;strokeColor=#3399FF;" parent="1" vertex="1">
          <mxGeometry x="310" y="247" width="67" height="63.25" as="geometry" />
        </mxCell>
        <mxCell id="_SsLV91mDrDcCINA4WaN-19" value="" style="endArrow=classic;html=1;strokeColor=#000000;fillColor=#5DE8A3;" parent="1" edge="1">
          <mxGeometry width="50" height="50" relative="1" as="geometry">
            <mxPoint x="240" y="293.5" as="sourcePoint" />
            <mxPoint x="240" y="373.5" as="targetPoint" />
          </mxGeometry>
        </mxCell>
        <mxCell id="_SsLV91mDrDcCINA4WaN-20" value="" style="endArrow=classic;html=1;strokeColor=#000000;fillColor=#5DE8A3;" parent="1" edge="1">
          <mxGeometry width="50" height="50" relative="1" as="geometry">
            <mxPoint x="129" y="194.5" as="sourcePoint" />
            <mxPoint x="197" y="194.5" as="targetPoint" />
          </mxGeometry>
        </mxCell>
        <mxCell id="_SsLV91mDrDcCINA4WaN-24" value="" style="endArrow=classic;html=1;strokeColor=#000000;fillColor=#5DE8A3;entryX=0;entryY=0.5;entryDx=0;entryDy=0;" parent="1" target="IKpuFnDj9mo2fojaH4by-4" edge="1">
          <mxGeometry width="50" height="50" relative="1" as="geometry">
            <mxPoint x="276" y="409" as="sourcePoint" />
            <mxPoint x="344" y="409" as="targetPoint" />
          </mxGeometry>
        </mxCell>
        <mxCell id="_SsLV91mDrDcCINA4WaN-29" value="&lt;font style=&quot;font-size: 9px&quot; face=&quot;Times New Roman&quot;&gt;Publishes Cycle File&amp;nbsp;&lt;/font&gt;" style="text;html=1;align=center;verticalAlign=middle;resizable=0;points=[];autosize=1;" parent="1" vertex="1">
          <mxGeometry x="276" y="390" width="86" height="19" as="geometry" />
        </mxCell>
        <mxCell id="IKpuFnDj9mo2fojaH4by-4" value="MQTT" style="rounded=1;whiteSpace=wrap;html=1;fillColor=#B266FF;strokeColor=#FFFFFF;" parent="1" vertex="1">
          <mxGeometry x="388" y="390" width="125" height="39" as="geometry" />
        </mxCell>
        <mxCell id="IKpuFnDj9mo2fojaH4by-44" value="" style="edgeStyle=orthogonalEdgeStyle;rounded=0;orthogonalLoop=1;jettySize=auto;html=1;" parent="1" source="IKpuFnDj9mo2fojaH4by-30" edge="1">
          <mxGeometry relative="1" as="geometry">
            <mxPoint x="517" y="409.5" as="targetPoint" />
          </mxGeometry>
        </mxCell>
        <mxCell id="IKpuFnDj9mo2fojaH4by-30" value="" style="rounded=1;whiteSpace=wrap;html=1;fillColor=#FFE599;" parent="1" vertex="1">
          <mxGeometry x="610" y="358" width="158" height="103" as="geometry" />
        </mxCell>
        <mxCell id="IKpuFnDj9mo2fojaH4by-34" value="&lt;font style=&quot;font-size: 8px&quot;&gt;Subscribes to Topics&lt;/font&gt;" style="text;html=1;strokeColor=none;fillColor=none;align=center;verticalAlign=middle;whiteSpace=wrap;rounded=0;" parent="1" vertex="1">
          <mxGeometry x="520" y="387.5" width="90" height="24" as="geometry" />
        </mxCell>
        <mxCell id="IKpuFnDj9mo2fojaH4by-37" value="&lt;font style=&quot;font-size: 8px&quot;&gt;&lt;b&gt;Event Extractor&lt;/b&gt;&lt;/font&gt;" style="rounded=1;whiteSpace=wrap;html=1;fillColor=#5DE8A3;" parent="1" vertex="1">
          <mxGeometry x="637" y="416" width="72" height="26" as="geometry" />
        </mxCell>
        <mxCell id="IKpuFnDj9mo2fojaH4by-38" value="Automation Tool&amp;nbsp;" style="text;html=1;strokeColor=none;fillColor=none;align=center;verticalAlign=middle;whiteSpace=wrap;rounded=0;" parent="1" vertex="1">
          <mxGeometry x="639.5" y="367.5" width="99" height="20" as="geometry" />
        </mxCell>
        <mxCell id="IKpuFnDj9mo2fojaH4by-50" value="" style="endArrow=classic;html=1;entryX=0.451;entryY=0.051;entryDx=0;entryDy=0;entryPerimeter=0;" parent="1" target="IKpuFnDj9mo2fojaH4by-4" edge="1">
          <mxGeometry width="50" height="50" relative="1" as="geometry">
            <mxPoint x="446" y="199" as="sourcePoint" />
            <mxPoint x="446" y="357" as="targetPoint" />
          </mxGeometry>
        </mxCell>
        <mxCell id="IKpuFnDj9mo2fojaH4by-51" value="" style="endArrow=none;html=1;" parent="1" edge="1">
          <mxGeometry width="50" height="50" relative="1" as="geometry">
            <mxPoint x="377" y="199" as="sourcePoint" />
            <mxPoint x="446" y="199" as="targetPoint" />
          </mxGeometry>
        </mxCell>
        <mxCell id="IKpuFnDj9mo2fojaH4by-53" value="&lt;font face=&quot;Times New Roman&quot; size=&quot;1&quot;&gt;Meaningful data includes &lt;br&gt;IRDS &amp;amp; Cycle data&lt;/font&gt;" style="text;html=1;align=center;verticalAlign=middle;resizable=0;points=[];autosize=1;rotation=0;" parent="1" vertex="1">
          <mxGeometry x="444" y="260.5" width="111" height="33" as="geometry" />
        </mxCell>
        <mxCell id="IKpuFnDj9mo2fojaH4by-56" value="" style="endArrow=classic;html=1;strokeColor=#000000;fillColor=#5DE8A3;" parent="1" edge="1">
          <mxGeometry width="50" height="50" relative="1" as="geometry">
            <mxPoint x="691" y="461" as="sourcePoint" />
            <mxPoint x="691" y="503" as="targetPoint" />
          </mxGeometry>
        </mxCell>
        <mxCell id="IKpuFnDj9mo2fojaH4by-57" value="Display Comparsion" style="rounded=0;whiteSpace=wrap;html=1;fillColor=#A9C4EB;" parent="1" vertex="1">
          <mxGeometry x="637" y="505" width="120" height="29" as="geometry" />
        </mxCell>
      </root>
    </mxGraphModel>
  </diagram>
</mxfile>
